<?xml version="1.0" encoding="UTF-8" standalone="no"?>
<svg
   version="1.1"
   width="900"
   height="900"
   id="svg37"
   sodipodi:docname="image1-Photoroom.svg"
   inkscape:version="1.4.2 (ebf0e94, 2025-05-08)"
   xmlns:inkscape="http://www.inkscape.org/namespaces/inkscape"
   xmlns:sodipodi="http://sodipodi.sourceforge.net/DTD/sodipodi-0.dtd"
   xmlns="http://www.w3.org/2000/svg"
   xmlns:svg="http://www.w3.org/2000/svg">
  <defs
     id="defs37" />
  <sodipodi:namedview
     id="namedview37"
     pagecolor="#505050"
     bordercolor="#eeeeee"
     borderopacity="1"
     inkscape:showpageshadow="0"
     inkscape:pageopacity="0"
     inkscape:pagecheckerboard="0"
     inkscape:deskcolor="#505050"
     inkscape:zoom="1.0355186"
     inkscape:cx="380.96853"
     inkscape:cy="626.7391"
     inkscape:window-width="2880"
     inkscape:window-height="1580"
     inkscape:window-x="-12"
     inkscape:window-y="-12"
     inkscape:window-maximized="1"
     inkscape:current-layer="svg37" />
  <path
     d="M0 0 C14.84956769 1.30204978 30.01456649 7.1588884 44 12 C45.33564629 12.44488564 46.67159179 12.88887388 48.0078125 13.33203125 C71.48435136 21.22853437 93.99706789 32.52267599 115.0625 45.5 C115.81337891 45.96019531 116.56425781 46.42039062 117.33789062 46.89453125 C118.82637888 47.80795101 120.31292606 48.72454263 121.79736328 49.64453125 C123.30354657 50.57141327 124.81802789 51.48490904 126.33935547 52.38671875 C127.0717041 52.82628906 127.80405273 53.26585937 128.55859375 53.71875 C129.22044678 54.10998047 129.8822998 54.50121094 130.56420898 54.90429688 C131.03802002 55.26587891 131.51183105 55.62746094 132 56 C132 56.66 132 57.32 132 58 C132.78375 58.309375 133.5675 58.61875 134.375 58.9375 C137 60 137 60 139 61 C139 61.66 139 62.32 139 63 C139.680625 63.226875 140.36125 63.45375 141.0625 63.6875 C144.6988709 65.31226146 148.02829263 67.32803257 151 70 C151 70.66 151 71.32 151 72 C151.57234375 72.268125 152.1446875 72.53625 152.734375 72.8125 C155.07884634 74.04132636 157.12404938 75.42522176 159.25 77 C160.30960938 77.7734375 160.30960938 77.7734375 161.390625 78.5625 C161.92171875 79.036875 162.4528125 79.51125 163 80 C163 80.66 163 81.32 163 82 C163.66 82 164.32 82 165 82 C165 82.66 165 83.32 165 84 C165.53753906 84.21011719 166.07507813 84.42023438 166.62890625 84.63671875 C169.90338288 86.51940795 172.3317159 89.12213364 174.9375 91.8125 C175.44990234 92.33392578 175.96230469 92.85535156 176.49023438 93.39257812 C177.51111884 94.43162318 178.53025948 95.4723846 179.54760742 96.51489258 C182.55083018 99.58576231 185.59845018 102.60900185 188.67578125 105.60546875 C189.54589844 106.45753906 190.41601562 107.30960937 191.3125 108.1875 C192.19550781 109.04730469 193.07851563 109.90710938 193.98828125 110.79296875 C196 113 196 113 196 115 C196.66 115 197.32 115 198 115 C199.54091405 116.69588264 201.00923297 118.45821672 202.4375 120.25 C203.61119141 121.71179688 203.61119141 121.71179688 204.80859375 123.203125 C205.53175781 124.12609375 206.25492188 125.0490625 207 126 C207.88365234 127.10601562 207.88365234 127.10601562 208.78515625 128.234375 C210 130 210 130 210 132 C210.66 132 211.32 132 212 132 C213.49633789 133.82006836 213.49633789 133.82006836 215.22265625 136.33984375 C215.84333984 137.23767578 216.46402344 138.13550781 217.10351562 139.06054688 C218.07321289 140.48463867 218.07321289 140.48463867 219.0625 141.9375 C220.34437973 143.80124387 221.62689765 145.66454901 222.91015625 147.52734375 C223.76299194 148.77632446 223.76299194 148.77632446 224.63305664 150.05053711 C225.85472236 151.91238882 225.85472236 151.91238882 227 153 C225.24116006 177.15308366 216.81796534 202.00048506 207 224 C206.47171921 225.25687371 205.94585332 226.51476405 205.421875 227.7734375 C202.03675594 235.82494995 198.23454301 243.38958138 193.80078125 250.9140625 C191.68650604 254.53722393 189.81447639 258.21984085 188 262 C187.34 262 186.68 262 186 262 C185.89558594 262.55171875 185.79117188 263.1034375 185.68359375 263.671875 C184.85439616 266.49588509 183.5720035 268.72554916 182.0625 271.25 C181.53785156 272.14203125 181.01320313 273.0340625 180.47265625 273.953125 C179.74369141 274.96632813 179.74369141 274.96632813 179 276 C178.34 276 177.68 276 177 276 C176.690625 276.78375 176.38125 277.5675 176.0625 278.375 C175 281 175 281 174 283 C173.34 283 172.68 283 172 283 C171.74992188 283.72316406 171.49984375 284.44632813 171.2421875 285.19140625 C169.89066934 288.24719731 168.26617488 290.38021 166.125 292.9375 C163.79645181 295.75959917 161.56917523 298.52462965 159.625 301.625 C159.08875 302.40875 158.5525 303.1925 158 304 C157.34 304 156.68 304 156 304 C155.67 304.99 155.34 305.98 155 307 C154.34 307 153.68 307 153 307 C152.63745117 307.84933105 152.63745117 307.84933105 152.26757812 308.71582031 C150.74904183 311.4522274 148.92848119 313.33069338 146.71875 315.546875 C145.87699219 316.39121094 145.03523437 317.23554687 144.16796875 318.10546875 C143.28753906 318.97816406 142.40710938 319.85085938 141.5 320.75 C140.61957031 321.63816406 139.73914063 322.52632812 138.83203125 323.44140625 C137.99027344 324.28058594 137.14851562 325.11976563 136.28125 325.984375 C135.50845703 326.75491211 134.73566406 327.52544922 133.93945312 328.31933594 C132 330 132 330 130 330 C129.67 330.99 129.34 331.98 129 333 C128.34 333 127.68 333 127 333 C127 333.66 127 334.32 127 335 C124.8828125 336.9453125 124.8828125 336.9453125 122.125 339.125 C121.22007812 339.84945313 120.31515625 340.57390625 119.3828125 341.3203125 C117 343 117 343 115 343 C115 343.66 115 344.32 115 345 C113.3455812 346.36003823 111.62403955 347.63901205 109.875 348.875 C108.37259766 349.93847656 108.37259766 349.93847656 106.83984375 351.0234375 C105.90269531 351.67570312 104.96554687 352.32796875 104 353 C103.34128906 353.46664063 102.68257812 353.93328125 102.00390625 354.4140625 C98.27383094 357 98.27383094 357 96 357 C96 357.66 96 358.32 96 359 C95.15179687 359.4846875 94.30359375 359.969375 93.4296875 360.46875 C92.87039551 360.7884375 92.31110352 361.108125 91.73486328 361.4375 C90.47574226 362.15680883 89.21629233 362.87554217 87.95654297 363.59375 C84.80185128 365.39330673 81.65159731 367.19923869 78.515625 369.03125 C36.46085105 393.450151 -12.02717055 409.5415483 -61 410 C-61.93827637 410.01369629 -62.87655273 410.02739258 -63.84326172 410.04150391 C-71.23110906 410.13838988 -78.61245175 410.10307643 -86 410 C-86.84755859 409.99274902 -87.69511719 409.98549805 -88.56835938 409.97802734 C-120.26617764 409.59510939 -152.38765615 401.86241403 -181.93115234 390.77148438 C-183.78556578 390.07996367 -185.65191082 389.42063949 -187.51953125 388.765625 C-196.12039947 385.66888823 -203.97952515 381.42998936 -211.99023438 377.078125 C-216.60184873 374.60425608 -221.30614421 372.31280455 -226 370 C-227.33378136 369.33423014 -228.66728856 368.667909 -230 368 C-230 367.34 -230 366.68 -230 366 C-230.52722656 365.9175 -231.05445313 365.835 -231.59765625 365.75 C-234.89853036 364.71948321 -237.57775592 362.89160567 -240.4375 361 C-241.04352051 360.60353271 -241.64954102 360.20706543 -242.27392578 359.79858398 C-244.18798524 358.54029924 -246.09461917 357.27138142 -248 356 C-248.63405762 355.57992676 -249.26811523 355.15985352 -249.92138672 354.72705078 C-251.74553603 353.51456965 -253.56168504 352.29111133 -255.375 351.0625 C-256.45523438 350.33160156 -257.53546875 349.60070312 -258.6484375 348.84765625 C-259.42445313 348.23792969 -260.20046875 347.62820313 -261 347 C-261 346.34 -261 345.68 -261 345 C-261.57234375 344.731875 -262.1446875 344.46375 -262.734375 344.1875 C-265.07884634 342.95867364 -267.12404938 341.57477824 -269.25 340 C-269.95640625 339.484375 -270.6628125 338.96875 -271.390625 338.4375 C-272.18726563 337.7259375 -272.18726563 337.7259375 -273 337 C-273 336.34 -273 335.68 -273 335 C-273.53109375 334.78601563 -274.0621875 334.57203125 -274.609375 334.3515625 C-277.91031251 332.48534619 -280.51078073 329.96232759 -283.25 327.375 C-284.11443726 326.56639526 -284.11443726 326.56639526 -284.99633789 325.74145508 C-299.9040564 311.74052701 -299.9040564 311.74052701 -304 306 C-304 305.34 -304 304.68 -304 304 C-304.66 304 -305.32 304 -306 304 C-306 303.34 -306 302.68 -306 302 C-306.66 302 -307.32 302 -308 302 C-309.2175293 300.68994141 -309.2175293 300.68994141 -310.57421875 298.8515625 C-311.07348877 298.1807666 -311.57275879 297.5099707 -312.0871582 296.81884766 C-312.615271 296.09487793 -313.14338379 295.3709082 -313.6875 294.625 C-314.22914795 293.89200684 -314.7707959 293.15901367 -315.32885742 292.40380859 C-318.76001419 287.74441575 -322.14253791 283.05293031 -325.421875 278.28515625 C-326.51856461 276.69712798 -327.63467485 275.12240757 -328.765625 273.55859375 C-332.43748885 268.45789593 -335.59361007 263.27760835 -338.53125 257.72265625 C-339.96201728 255.07040946 -341.48693169 252.50583712 -343.0625 249.9375 C-347.37896916 242.80349222 -350.92532886 235.47206321 -353.921875 227.6953125 C-354.65666703 225.85833242 -355.4404017 224.04035925 -356.265625 222.2421875 C-364.57222556 204.0315632 -377.03751139 176.45200113 -375 156 C-373.625 153.1875 -373.625 153.1875 -372 151 C-371.34 151 -370.68 151 -370 151 C-370 150.01 -370 149.02 -370 148 C-369.34 148 -368.68 148 -368 148 C-367.5359375 146.824375 -367.5359375 146.824375 -367.0625 145.625 C-366 143 -366 143 -365 141 C-364.34 141 -363.68 141 -363 141 C-362.731875 140.2575 -362.46375 139.515 -362.1875 138.75 C-361.04723249 136.10938051 -359.90619694 134.14447156 -358 132 C-357.34 132 -356.68 132 -356 132 C-355.71898437 131.41089844 -355.43796875 130.82179688 -355.1484375 130.21484375 C-351.18764424 122.57617104 -344.82970647 116.4398979 -338.99609375 110.21875 C-336.5173316 107.57308091 -334.12716479 104.8626178 -331.75 102.125 C-322.15461604 91.43050842 -311.23463227 81.92218652 -300 73 C-298.8095016 71.982665 -297.6214471 70.96245181 -296.4375 69.9375 C-294 68 -294 68 -292 68 C-292 67.34 -292 66.68 -292 66 C-287.61538462 63 -287.61538462 63 -285 63 C-285 62.34 -285 61.68 -285 61 C-284.01 61 -283.02 61 -282 61 C-281.67 60.01 -281.34 59.02 -281 58 C-278 56 -278 56 -275 56 C-275 55.34 -275 54.68 -275 54 C-271.54219016 51.37116833 -267.72041922 49.23800271 -264 47 C-263.34128906 46.60151855 -262.68257813 46.20303711 -262.00390625 45.79248047 C-254.16713198 41.06597159 -246.31473529 36.47570644 -238.0703125 32.48828125 C-235.7978152 31.38672722 -233.54883517 30.26205024 -231.3046875 29.10546875 C-208.9975755 17.6432069 -185.15870131 9.31943975 -160.9375 2.875 C-160.18936035 2.67503418 -159.4412207 2.47506836 -158.67041016 2.26904297 C-155.06033122 1.35487372 -151.72911953 0.67572874 -148 1 C-145.84261127 3.15738873 -146.15085518 7.75197221 -145.75 10.75 C-141.64561906 39.58210565 -132.84398243 67.88102903 -120 94 C-119.43410156 95.18207031 -118.86820312 96.36414063 -118.28515625 97.58203125 C-114.8513053 104.6443959 -111.09149422 111.34030953 -106.89453125 117.96484375 C-105.59062767 120.05377793 -104.34453803 122.17955498 -103.1484375 124.33203125 C-100.22191203 129.5038161 -96.63820361 134.22807175 -93.15820312 139.03515625 C-92.37799805 140.12376953 -92.37799805 140.12376953 -91.58203125 141.234375 C-90.87397339 142.21229004 -90.87397339 142.21229004 -90.15161133 143.20996094 C-89 145 -89 145 -88 148 C-87.34 148 -86.68 148 -86 148 C-86 148.99 -86 149.98 -86 151 C-85.34 151 -84.68 151 -84 151 C-81.8725113 153.48884559 -79.94104585 156.09890916 -77.97265625 158.71484375 C-76.1329192 161.2398513 -76.1329192 161.2398513 -73 162 C-72.51789063 161.3503125 -72.03578125 160.700625 -71.5390625 160.03125 C-70.59160156 158.77828125 -70.59160156 158.77828125 -69.625 157.5 C-68.99851562 156.6646875 -68.37203125 155.829375 -67.7265625 154.96875 C-66.87191406 153.99421875 -66.87191406 153.99421875 -66 153 C-65.34 153 -64.68 153 -64 153 C-63.773125 152.319375 -63.54625 151.63875 -63.3125 150.9375 C-61.68773854 147.3011291 -59.67196743 143.97170737 -57 141 C-56.34 141 -55.68 141 -55 141 C-54.690625 140.21625 -54.38125 139.4325 -54.0625 138.625 C-53 136 -53 136 -52 134 C-51.34 134 -50.68 134 -50 134 C-49.62875 132.6696875 -49.62875 132.6696875 -49.25 131.3125 C-47.95387936 127.87778031 -46.33792687 125.79042885 -44 123 C-43.67 122.01 -43.34 121.02 -43 120 C-42.34 120 -41.68 120 -41 120 C-40.9071875 119.46375 -40.814375 118.9275 -40.71875 118.375 C-39.77263545 115.24870843 -38.19304262 112.794864 -36.5 110 C-28.69982245 96.72864167 -22.92813192 82.41565799 -17.73413086 67.95678711 C-16.89023233 65.70742006 -15.96685731 63.49664384 -15.046875 61.27734375 C-12.80177858 55.68602234 -11.12762736 50.00166495 -9.5625 44.1875 C-9.2639209 43.08543213 -8.9653418 41.98336426 -8.65771484 40.84790039 C-5.42894143 28.49226481 -3.39062714 15.97876811 -1.46142578 3.36303711 C-1 1 -1 1 0 0 Z M-192 75 C-201.37861342 78.92497037 -210.11450589 83.8691112 -218.95556641 88.85888672 C-221.50954426 90.28440528 -224.09755803 91.64115152 -226.6875 93 C-239.82568084 100.18806247 -251.56593305 109.33826243 -263.24511719 118.64648438 C-264.78088595 119.83100052 -266.38623761 120.92415841 -268 122 C-268 122.66 -268 123.32 -268 124 C-268.53625 124.226875 -269.0725 124.45375 -269.625 124.6875 C-274.80179941 127.54836283 -278.8982416 131.80058069 -283 136 C-283.64324219 136.63292969 -284.28648437 137.26585937 -284.94921875 137.91796875 C-288.54928282 141.46479712 -291.89306624 145.00537088 -295 149 C-296.11375 150.0828125 -296.11375 150.0828125 -297.25 151.1875 C-299.2315315 152.81989123 -299.2315315 152.81989123 -299 155 C-299.66 155 -300.32 155 -301 155 C-303.04456059 157.17264655 -303.04456059 157.17264655 -305.125 159.875 C-306.21167969 161.23238281 -306.21167969 161.23238281 -307.3203125 162.6171875 C-309.19205234 164.78655811 -309.19205234 164.78655811 -309 167 C-309.66 167 -310.32 167 -311 167 C-312.82901494 169.03007338 -312.82901494 169.03007338 -314.625 171.625 C-315.25664062 172.48351562 -315.88828125 173.34203125 -316.5390625 174.2265625 C-318.82888695 178.57355545 -318.38941014 181.6163512 -317.08203125 186.26171875 C-314.34085713 193.65867169 -311.39221856 200.87459245 -308 208 C-307.28574543 209.52961523 -306.57227181 211.05959525 -305.859375 212.58984375 C-305.07339881 214.268455 -304.28693702 215.94683897 -303.5 217.625 C-303.13229492 218.41285889 -302.76458984 219.20071777 -302.38574219 220.01245117 C-299.80792677 225.47179014 -296.99247386 230.75692341 -294 236 C-293.34 236 -292.68 236 -292 236 C-291.773125 236.825 -291.54625 237.65 -291.3125 238.5 C-289.75058943 242.66509486 -287.77149893 246.5000943 -285 250 C-284.34 250 -283.68 250 -283 250 C-282.78085937 250.680625 -282.56171875 251.36125 -282.3359375 252.0625 C-280.61188439 255.85340041 -278.23834668 258.78145724 -275.625 262 C-275.14289063 262.60328125 -274.66078125 263.2065625 -274.1640625 263.828125 C-273.22071288 265.00731202 -272.2732457 266.18321916 -271.32128906 267.35546875 C-270.11142242 268.86131903 -268.94028746 270.39807689 -267.7734375 271.9375 C-267.18820312 272.618125 -266.60296875 273.29875 -266 274 C-265.34 274 -264.68 274 -264 274 C-263.74025391 274.58426758 -263.48050781 275.16853516 -263.21289062 275.77050781 C-261.915344 278.15561164 -260.50658878 279.75190637 -258.59375 281.671875 C-257.93246094 282.33574219 -257.27117187 282.99960937 -256.58984375 283.68359375 C-255.90019531 284.36550781 -255.21054687 285.04742188 -254.5 285.75 C-253.81035156 286.44738281 -253.12070312 287.14476562 -252.41015625 287.86328125 C-251.74886719 288.52199219 -251.08757812 289.18070313 -250.40625 289.859375 C-249.80103516 290.46233398 -249.19582031 291.06529297 -248.57226562 291.68652344 C-247.08563968 293.21370721 -247.08563968 293.21370721 -245 293 C-245 293.66 -245 294.32 -245 295 C-243.30411736 296.54091405 -241.54178328 298.00923297 -239.75 299.4375 C-238.77546875 300.21996094 -237.8009375 301.00242187 -236.796875 301.80859375 C-235.87390625 302.53175781 -234.9509375 303.25492188 -234 304 C-233.26265625 304.58910156 -232.5253125 305.17820312 -231.765625 305.78515625 C-230.08258915 307.18894607 -230.08258915 307.18894607 -228 307 C-228 307.66 -228 308.32 -228 309 C-225.63884017 310.80042226 -223.27704256 312.47639447 -220.8125 314.125 C-220.0901416 314.61419922 -219.3677832 315.10339844 -218.62353516 315.60742188 C-205.18116216 325.95519195 -205.18116216 325.95519195 -190 331 C-190 331.66 -190 332.32 -190 333 C-187.00113983 334.33590791 -184.00074137 335.66832369 -181 337 C-180.28408691 337.3192041 -179.56817383 337.6384082 -178.83056641 337.96728516 C-143.45726435 353.64380805 -106.69500794 361.04704139 -68 360 C-67.1965918 359.98211426 -66.39318359 359.96422852 -65.56542969 359.94580078 C-52.45473705 359.6281204 -39.85645622 358.57520153 -27 356 C-26.1951416 355.8462793 -25.3902832 355.69255859 -24.56103516 355.53417969 C-16.00482325 353.89982838 -7.68230998 352.21106388 0.4375 348.98046875 C3.2163987 347.91720111 6.01156258 347.11966795 8.875 346.3125 C29.92442556 339.91267465 49.43919851 329.30817753 67.68359375 317.1875 C71 315 71 315 73 314 C73 313.34 73 312.68 73 312 C74.0209375 311.6596875 74.0209375 311.6596875 75.0625 311.3125 C78.6988709 309.68773854 82.02829263 307.67196743 85 305 C85 304.34 85 303.68 85 303 C85.57234375 302.731875 86.1446875 302.46375 86.734375 302.1875 C89.07884634 300.95867364 91.12404938 299.57477824 93.25 298 C93.95640625 297.484375 94.6628125 296.96875 95.390625 296.4375 C95.92171875 295.963125 96.4528125 295.48875 97 295 C97 294.34 97 293.68 97 293 C97.66 293 98.32 293 99 293 C101.66666667 290.66666667 101.66666667 290.66666667 104 288 C104 287.34 104 286.68 104 286 C104.66 286 105.32 286 106 286 C107.66666667 284.66666667 107.66666667 284.66666667 109 283 C109 282.34 109 281.68 109 281 C109.66 281 110.32 281 111 281 C111 280.34 111 279.68 111 279 C111.66 279 112.32 279 113 279 C114.39599396 277.47162731 115.71587649 275.87349901 117 274.25 C117.80308594 273.24324219 118.60617187 272.23648438 119.43359375 271.19921875 C119.85495605 270.66989746 120.27631836 270.14057617 120.71044922 269.59521484 C122.77575784 267.04036317 124.92814381 264.55972973 127.0625 262.0625 C140.39487636 246.04313701 152.58776457 226.50979694 160 207 C160.5651165 205.54767457 161.13164359 204.09589759 161.69921875 202.64453125 C163.94038029 196.91162937 163.94038029 196.91162937 166.16137695 191.17089844 C166.72470009 189.71265409 167.29629104 188.25757908 167.87573242 186.80566406 C169.69601052 182.16285382 170.30673085 178.90769362 170 174 C169.34 174 168.68 174 168 174 C167.6596875 172.9790625 167.6596875 172.9790625 167.3125 171.9375 C164.64601378 165.9696499 160.65806756 161.53548684 156 157 C155.1646875 155.8553125 155.1646875 155.8553125 154.3125 154.6875 C153.879375 154.130625 153.44625 153.57375 153 153 C152.34 153 151.68 153 151 153 C150.773125 152.46375 150.54625 151.9275 150.3125 151.375 C148.54429911 148.17539839 146.46329797 145.70962777 144 143 C143.34 143 142.68 143 142 143 C142 142.34 142 141.68 142 141 C140.4492093 139.43135918 140.4492093 139.43135918 138.4375 137.8125 C134.89003826 134.81322507 131.63477128 131.66004868 128.4453125 128.28515625 C127.07324261 126.7785036 127.07324261 126.7785036 125 127 C124.67 126.01 124.34 125.02 124 124 C122.40197654 122.63037965 122.40197654 122.63037965 120.5 121.4375 C117.10076336 119.20152672 117.10076336 119.20152672 116 117 C115.01 117 114.02 117 113 117 C113 116.34 113 115.68 113 115 C111.51363242 113.6393991 111.51363242 113.6393991 109.625 112.375 C108.99851562 111.92898438 108.37203125 111.48296875 107.7265625 111.0234375 C106.04777357 109.83003031 106.04777357 109.83003031 104 110 C104 109.34 104 108.68 104 108 C100.77885843 105.68407978 100.77885843 105.68407978 97 105 C97 104.34 97 103.68 97 103 C96.071875 102.484375 95.14375 101.96875 94.1875 101.4375 C91.03516039 99.64066642 87.98450965 97.71973849 84.9375 95.75 C64.7043161 81.81206874 64.7043161 81.81206874 42 75 C41.76998291 75.71615479 41.53996582 76.43230957 41.30297852 77.17016602 C38.78623834 84.87733249 35.96140902 92.41626303 32.9375 99.9375 C32.50373047 101.03384766 32.06996094 102.13019531 31.62304688 103.25976562 C31.19958984 104.31744141 30.77613281 105.37511719 30.33984375 106.46484375 C29.96206787 107.409646 29.58429199 108.35444824 29.19506836 109.32788086 C27.98471567 112.03417507 26.55145786 114.47730429 25 117 C24.38335872 118.50763568 23.7999836 120.029291 23.25 121.5625 C21.25338655 126.69882621 18.62337871 131.27636776 15.7890625 135.9921875 C14.11136926 138.81276346 12.5428604 141.66654277 11 144.5625 C7.11799171 151.71517669 2.74902523 158.49702657 -1.890625 165.1796875 C-2.39311768 165.90389893 -2.89561035 166.62811035 -3.41333008 167.37426758 C-4.41868037 168.8176369 -5.42884028 170.25766966 -6.4440918 171.6940918 C-9.07051939 175.02901445 -9.07051939 175.02901445 -10 179 C-10.66 179 -11.32 179 -12 179 C-13.3606009 180.48636758 -13.3606009 180.48636758 -14.625 182.375 C-15.07101562 183.00148438 -15.51703125 183.62796875 -15.9765625 184.2734375 C-17.16996969 185.95222643 -17.16996969 185.95222643 -17 188 C-17.66 188 -18.32 188 -19 188 C-20.78206021 189.91035013 -20.78206021 189.91035013 -22.5625 192.3125 C-23.18253906 193.11300781 -23.80257813 193.91351563 -24.44140625 194.73828125 C-26.15429792 196.99968203 -26.15429792 196.99968203 -27 200 C-27.66 200 -28.32 200 -29 200 C-30.81067374 201.71331989 -30.81067374 201.71331989 -32.625 203.875 C-33.25664062 204.59429687 -33.88828125 205.31359375 -34.5390625 206.0546875 C-36.20017123 207.86106933 -36.20017123 207.86106933 -36 210 C-36.99 210.33 -37.98 210.66 -39 211 C-40.40613375 212.42561618 -40.40613375 212.42561618 -41.8125 214.25 C-50.82849331 224.89654529 -62.02541897 234.42610857 -73 243 C-73.763125 242.690625 -74.52625 242.38125 -75.3125 242.0625 C-77.18789677 241.32106407 -79.08684652 240.63771783 -81 240 C-81 239.34 -81 238.68 -81 238 C-81.66 238 -82.32 238 -83 238 C-83 237.34 -83 236.68 -83 236 C-84.55887519 234.62069882 -86.18000811 233.31153197 -87.82421875 232.03515625 C-93.87129143 227.19304247 -99.35720044 221.94061811 -104.8125 216.4375 C-105.71419922 215.54353516 -106.61589844 214.64957031 -107.54492188 213.72851562 C-112.00365678 209.25669566 -116.15800635 204.80323533 -119.79541016 199.63330078 C-121.11932349 197.75308797 -121.11932349 197.75308797 -123.5625 195.4375 C-125.60066213 193.39933787 -127.07567464 191.54396982 -128.6875 189.1875 C-129.450625 188.135625 -130.21375 187.08375 -131 186 C-131.66 186 -132.32 186 -133 186 C-133.3403125 184.9790625 -133.3403125 184.9790625 -133.6875 183.9375 C-135.31226146 180.3011291 -137.32803257 176.97170737 -140 174 C-140.66 174 -141.32 174 -142 174 C-142.309375 173.21625 -142.61875 172.4325 -142.9375 171.625 C-143.92875038 169.07669872 -143.92875038 169.07669872 -145 167 C-145.66 167 -146.32 167 -147 167 C-147.268125 166.27941406 -147.53625 165.55882812 -147.8125 164.81640625 C-149.0001361 161.99967722 -150.39399239 159.53521731 -152 156.9375 C-153.80537691 154.00827597 -155.50962629 151.1025568 -157 148 C-157.66 148 -158.32 148 -159 148 C-159.10183594 147.45859375 -159.20367187 146.9171875 -159.30859375 146.359375 C-160.17950163 143.38746338 -161.55468367 140.95651314 -163.0625 138.25 C-172.92157838 120.24245736 -181.71711893 101.67976539 -188.14892578 82.15258789 C-189.45113492 78.21746254 -189.45113492 78.21746254 -192 75 Z "
     fill="#F87171"
     transform="translate(524,245)"
     id="path1"
     style="fill:#000000;fill-opacity:1;stroke:none;stroke-opacity:1" />
  <path
     d="M0 0 C4.06304166 4.00937884 7.98370759 8.13667059 11.875 12.3125 C12.49777832 12.97967041 13.12055664 13.64684082 13.76220703 14.33422852 C16.8545381 17.65716724 19.9137239 20.9963875 22.875 24.4375 C28.72084999 31.20637894 35.22112831 37.1858139 42 43 C43.50127326 44.31104343 45.00130834 45.62350626 46.5 46.9375 C47.1703125 47.52402344 47.840625 48.11054688 48.53125 48.71484375 C49.0159375 49.13894531 49.500625 49.56304687 50 50 C49.01 50.495 49.01 50.495 48 51 C47.01 50.505 47.01 50.505 46 50 C46 49.34 46 48.68 46 48 C45.44699219 47.76410156 44.89398438 47.52820313 44.32421875 47.28515625 C35.56857978 42.44380294 28.10470385 33.1978421 21.0625 26.1875 C20.34102783 25.47070068 19.61955566 24.75390137 18.8762207 24.01538086 C8 13.10614419 8 13.10614419 8 10 C7.01 9.67 6.02 9.34 5 9 C3.61328125 7.44140625 3.61328125 7.44140625 2.3125 5.5625 C1.65701172 4.63630859 1.65701172 4.63630859 0.98828125 3.69140625 C0 2 0 2 0 0 Z "
     fill="#FF7D7B"
     transform="translate(395,433)"
     id="path2"
     style="fill:#000000;fill-opacity:1;stroke:none;stroke-opacity:1" />
  <path
     d="M0 0 C0.66 0.33 1.32 0.66 2 1 C-2.88322748 7.73293486 -7.94090798 14.27419426 -13.3125 20.625 C-13.81555664 21.22844238 -14.31861328 21.83188477 -14.83691406 22.45361328 C-17.3054069 25.33791296 -19.38153372 27.6763805 -23 29 C-23 28.34 -23 27.68 -23 27 C-22.34 27 -21.68 27 -21 27 C-20.67 26.01 -20.34 25.02 -20 24 C-19.34 24 -18.68 24 -18 24 C-17.77957031 23.47019531 -17.55914063 22.94039062 -17.33203125 22.39453125 C-15.52324942 19.14296742 -13.12286739 16.4761224 -10.6875 13.6875 C-6.88035849 9.26660338 -3.26644387 4.84334781 0 0 Z "
     fill="#FE7C7B"
     transform="translate(658,497)"
     id="path3"
     style="fill:#000000;fill-opacity:1;stroke:none;stroke-opacity:1" />
  <path
     d="M0 0 C0.33 0.66 0.66 1.32 1 2 C-3.68094741 7.594303 -8.68199181 12.82068212 -13.8125 18 C-14.48289307 18.68328369 -15.15328613 19.36656738 -15.84399414 20.07055664 C-16.47942139 20.70727295 -17.11484863 21.34398926 -17.76953125 22 C-18.34292236 22.5775 -18.91631348 23.155 -19.50708008 23.75 C-21 25 -21 25 -23 25 C-23.33 25.99 -23.66 26.98 -24 28 C-26.0625 28.6875 -26.0625 28.6875 -28 29 C-25.32050502 25.56689706 -22.62633337 22.57986582 -19.3125 19.75 C-12.29905902 13.75935249 -5.7191876 7.24430429 0 0 Z "
     fill="#FE7B79"
     transform="translate(677,550)"
     id="path4"
     style="fill:#000000;fill-opacity:1;stroke:none;stroke-opacity:1" />
  <path
     d="M0 0 C0 5.00096996 -3.61627339 7.54901277 -7 11 C-11.9231601 15.7485705 -16.95373372 20.38293399 -22 25 C-22.99 24.67 -23.98 24.34 -25 24 C-24.52691406 23.59837646 -24.05382812 23.19675293 -23.56640625 22.78295898 C-18.13190589 18.10656083 -13.03960551 13.1588775 -8 8.0625 C-7.22527344 7.28326172 -6.45054687 6.50402344 -5.65234375 5.70117188 C-3.76589243 3.8030758 -1.88183755 1.90266851 0 0 Z "
     fill="#FF7B7A"
     transform="translate(486,453)"
     id="path5"
     style="fill:#000000;fill-opacity:1;stroke:none;stroke-opacity:1" />
  <path
     d="M0 0 C0.66 0.33 1.32 0.66 2 1 C0.625 2.5 0.625 2.5 -1 4 C-1.66 4 -2.32 4 -3 4 C-3 4.66 -3 5.32 -3 6 C-4.6796875 7.7265625 -4.6796875 7.7265625 -6.875 9.625 C-7.59429687 10.25664062 -8.31359375 10.88828125 -9.0546875 11.5390625 C-11 13 -11 13 -13 13 C-13.33 13.99 -13.66 14.98 -14 16 C-15.70703125 17.68359375 -15.70703125 17.68359375 -17.8125 19.4375 C-20.66759505 21.85689832 -23.4052662 24.2971523 -26 27 C-26.66 26.67 -27.32 26.34 -28 26 C-9.97425626 7.56147721 -9.97425626 7.56147721 0 0 Z "
     fill="#FF7F7C"
     transform="translate(259,363)"
     id="path6"
     style="fill:#000000;fill-opacity:1;stroke:none;stroke-opacity:1" />
  <path
     d="M0 0 C0.99 0.33 1.98 0.66 3 1 C2.2471875 1.46148437 1.494375 1.92296875 0.71875 2.3984375 C-0.3434375 3.05070312 -1.405625 3.70296875 -2.5 4.375 C-3.07153809 4.72498047 -3.64307617 5.07496094 -4.23193359 5.43554688 C-7.61480998 7.51257679 -10.97718541 9.61731368 -14.3203125 11.7578125 C-15.39442383 12.44157959 -15.39442383 12.44157959 -16.49023438 13.13916016 C-17.89868962 14.03700205 -19.30373356 14.94022085 -20.70507812 15.84912109 C-25.66440577 19 -25.66440577 19 -29 19 C-21.54324958 12.71531333 -13.39066985 7.89772131 -5 3 C-4.08734375 2.39671875 -3.1746875 1.7934375 -2.234375 1.171875 C-1.12835938 0.59179688 -1.12835938 0.59179688 0 0 Z "
     fill="#FF7F7C"
     transform="translate(304,332)"
     id="path7"
     style="fill:#000000;fill-opacity:1;stroke:none;stroke-opacity:1" />
  <path
     d="M0 0 C1 3 1 3 0.16723633 4.89770508 C-0.27338135 5.59790771 -0.71399902 6.29811035 -1.16796875 7.01953125 C-1.89016602 8.18258789 -1.89016602 8.18258789 -2.62695312 9.36914062 C-3.14193359 10.17544922 -3.65691406 10.98175781 -4.1875 11.8125 C-4.68314453 12.60720703 -5.17878906 13.40191406 -5.68945312 14.22070312 C-7.1108077 16.49073969 -8.55349984 18.74593505 -10 21 C-10.3913916 21.63083496 -10.7827832 22.26166992 -11.18603516 22.91162109 C-12.07078369 24.30956484 -13.02782841 25.66137792 -14 27 C-14.66 27 -15.32 27 -16 27 C-14.32090514 21.99252184 -11.4556635 17.86803564 -8.5625 13.5 C-7.58390813 12.01089436 -6.6060248 10.52132282 -5.62890625 9.03125 C-4.94465576 7.98904297 -4.94465576 7.98904297 -4.24658203 6.92578125 C-2.77362072 4.65027815 -1.36922085 2.33927901 0 0 Z "
     fill="#FF7C7A"
     transform="translate(536,385)"
     id="path8"
     style="fill:#000000;fill-opacity:1;stroke:none;stroke-opacity:1" />
  <path
     d="M0 0 C3.76878586 1.55799693 6.11271145 3.909366 8.9375 6.8125 C9.77152344 7.66457031 10.60554687 8.51664062 11.46484375 9.39453125 C12.71974609 10.68423828 12.71974609 10.68423828 14 12 C15.66414333 13.66918619 17.330643 15.33602802 19 17 C21.33333333 19.33333333 23.66666667 21.66666667 26 24 C25.67 24.66 25.34 25.32 25 26 C21.43645168 22.46109324 17.87614125 18.91897325 14.31884766 15.3737793 C13.10717739 14.16715088 11.89461294 12.96141972 10.68115234 11.7565918 C8.9413478 10.02885937 7.20474035 8.29796998 5.46875 6.56640625 C4.92190552 6.02472305 4.37506104 5.48303986 3.81164551 4.92494202 C2.52197869 3.63546982 1.2580767 2.32031135 0 1 C0 0.67 0 0.34 0 0 Z "
     fill="#FE7B79"
     transform="translate(691,331)"
     id="path9"
     style="fill:#000000;fill-opacity:1;stroke:none;stroke-opacity:1" />
  <path
     d="M0 0 C4.41726132 1.62853249 7.01593455 5.01712284 10.0625 8.4375 C11.11542321 9.60328221 12.16879446 10.76865995 13.22265625 11.93359375 C13.68422119 12.44978271 14.14578613 12.96597168 14.62133789 13.49780273 C16.01025676 15.04925723 16.01025676 15.04925723 17.67358398 16.56665039 C19 18 19 18 19 20 C14.95190965 18.41102996 12.62436647 15.69374052 9.75 12.5 C9.29109375 12.00113281 8.8321875 11.50226562 8.359375 10.98828125 C5 7.25897507 5 7.25897507 5 5 C4.34 5 3.68 5 3 5 C3 4.34 3 3.68 3 3 C2.34 3 1.68 3 1 3 C0.67 2.01 0.34 1.02 0 0 Z "
     fill="#FE7978"
     transform="translate(215,544)"
     id="path10"
     style="fill:#000000;fill-opacity:1;stroke:none;stroke-opacity:1" />
  <path
     d="M0 0 C0.33 0.99 0.66 1.98 1 3 C-1.18434976 4.8995663 -3.37232283 6.79467211 -5.5625 8.6875 C-6.17158203 9.21794922 -6.78066406 9.74839844 -7.40820312 10.29492188 C-11.45433116 13.7844397 -15.60942057 16.95428274 -20 20 C-20 19.01 -20 18.02 -20 17 C-16.66666667 14 -16.66666667 14 -14 14 C-14 13.34 -14 12.68 -14 12 C-12.13671875 10.30859375 -12.13671875 10.30859375 -9.6875 8.4375 C-8.88699219 7.81746094 -8.08648438 7.19742188 -7.26171875 6.55859375 C-5 5 -5 5 -2 4 C-2 3.34 -2 2.68 -2 2 C-1.34 2 -0.68 2 0 2 C0 1.34 0 0.68 0 0 Z "
     fill="#FF7B79"
     transform="translate(623,536)"
     id="path11"
     style="fill:#000000;fill-opacity:1;stroke:none;stroke-opacity:1" />
  <path
     d="M0 0 C0.66 0.33 1.32 0.66 2 1 C-5.07710917 6.15125867 -12.38147872 10.69331014 -20 15 C-20.33 14.34 -20.66 13.68 -21 13 C-18.4378513 11.39526997 -15.87529445 9.79119818 -13.3125 8.1875 C-12.59126953 7.73568359 -11.87003906 7.28386719 -11.12695312 6.81835938 C-9.72133997 5.93904886 -8.31399633 5.06249743 -6.90478516 4.18896484 C-5.2929273 3.18284491 -3.69726527 2.15084902 -2.10546875 1.11328125 C-1.41066406 0.74589844 -0.71585938 0.37851562 0 0 Z "
     fill="#FF7C7B"
     transform="translate(597,558)"
     id="path12"
     style="fill:#000000;fill-opacity:1;stroke:none;stroke-opacity:1" />
  <path
     d="M0 0 C0.66 0 1.32 0 2 0 C0.44140281 5.07373128 -1.20896214 9.46456348 -4 14 C-5.08728557 16.64125992 -6.04169477 19.30761863 -7 22 C-7.66 22 -8.32 22 -9 22 C-8.36111113 16.93959451 -6.13720723 12.71988466 -3.9375 8.1875 C-3.37192383 7.00510742 -3.37192383 7.00510742 -2.79492188 5.79882812 C-1.86829839 3.86347527 -0.93482533 1.93140451 0 0 Z "
     fill="#FF7D7C"
     transform="translate(554,348)"
     id="path13"
     style="fill:#000000;fill-opacity:1;stroke:none;stroke-opacity:1" />
  <path
     d="M0 0 C0.66 0.33 1.32 0.66 2 1 C0.10548397 3.06372321 -1.79056563 5.12600157 -3.6875 7.1875 C-4.21794922 7.76564453 -4.74839844 8.34378906 -5.29492188 8.93945312 C-8.4569327 12.3730477 -11.67475068 15.72410503 -15 19 C-14.41164423 15.55629054 -13.23873007 13.83506926 -10.83984375 11.328125 C-10.21142578 10.66425781 -9.58300781 10.00039063 -8.93554688 9.31640625 C-8.27619141 8.63449219 -7.61683594 7.95257813 -6.9375 7.25 C-6.27427734 6.55261719 -5.61105469 5.85523438 -4.92773438 5.13671875 C-3.29156515 3.41815251 -1.64891745 1.70632351 0 0 Z "
     fill="#FF7A78"
     transform="translate(189,351)"
     id="path14"
     style="fill:#000000;fill-opacity:1;stroke:none;stroke-opacity:1" />
  <path
     d="M0 0 C7.50858599 3.68940398 13.66848117 8.56791188 20 14 C19.01 14.495 19.01 14.495 18 15 C16.49460339 14.05016642 14.99579653 13.08988109 13.5 12.125 C12.6646875 11.59132813 11.829375 11.05765625 10.96875 10.5078125 C10.3190625 10.01023437 9.669375 9.51265625 9 9 C9 8.34 9 7.68 9 7 C7.824375 6.5359375 7.824375 6.5359375 6.625 6.0625 C4 5 4 5 2 4 C2 3.34 2 2.68 2 2 C1.34 2 0.68 2 0 2 C0 1.34 0 0.68 0 0 Z "
     fill="#FF7D7B"
     transform="translate(619,346)"
     id="path15"
     style="fill:#000000;fill-opacity:1;stroke:none;stroke-opacity:1" />
  <path
     d="M0 0 C3.52448507 0.66701703 6.18300138 2.10357831 9.25 3.9375 C10.14203125 4.46214844 11.0340625 4.98679687 11.953125 5.52734375 C12.62859375 6.01332031 13.3040625 6.49929688 14 7 C14 7.66 14 8.32 14 9 C16.475 9.99 16.475 9.99 19 11 C19 11.99 19 12.98 19 14 C15.82960795 11.85963034 12.66433269 9.71181559 9.5 7.5625 C8.59378906 6.95083984 7.68757812 6.33917969 6.75390625 5.70898438 C5.89667969 5.12568359 5.03945313 4.54238281 4.15625 3.94140625 C3.36025391 3.40201416 2.56425781 2.86262207 1.74414062 2.30688477 C1.16857422 1.87561279 0.59300781 1.44434082 0 1 C0 0.67 0 0.34 0 0 Z "
     fill="#FF7977"
     transform="translate(642,294)"
     id="path16"
     style="fill:#000000;fill-opacity:1;stroke:none;stroke-opacity:1" />
  <path
     d="M0 0 C0 0.66 0 1.32 0 2 C-0.81791016 2.34611328 -0.81791016 2.34611328 -1.65234375 2.69921875 C-6.67419913 4.8710639 -11.43032311 7.28195286 -16.15234375 10.046875 C-18 11 -18 11 -20 11 C-19 8 -19 8 -17.35766602 6.92504883 C-16.66342529 6.60560303 -15.96918457 6.28615723 -15.25390625 5.95703125 C-14.49916016 5.60576172 -13.74441406 5.25449219 -12.96679688 4.89257812 C-11.77666992 4.35793945 -11.77666992 4.35793945 -10.5625 3.8125 C-9.77294922 3.44447266 -8.98339844 3.07644531 -8.16992188 2.69726562 C-2.2999913 0 -2.2999913 0 0 0 Z "
     fill="#FF817E"
     transform="translate(330,320)"
     id="path17"
     style="fill:#000000;fill-opacity:1;stroke:none;stroke-opacity:1" />
  <path
     d="M0 0 C3.20373071 3.10361412 6.25294919 6.32069758 9.25 9.625 C10.27867187 10.75808594 10.27867187 10.75808594 11.328125 11.9140625 C13 14 13 14 14 17 C12.125 16.3125 12.125 16.3125 10 15 C9.31246699 13.34183216 8.64438717 11.67540664 8 10 C7.01 9.67 6.02 9.34 5 9 C0 3.65116279 0 3.65116279 0 0 Z "
     fill="#FF7E7D"
     transform="translate(677,397)"
     id="path18"
     style="fill:#000000;fill-opacity:1;stroke:none;stroke-opacity:1" />
  <path
     d="M0 0 C4.22246654 1.5238977 7.95026848 3.64331258 11.75 6 C12.33910156 6.35578125 12.92820312 6.7115625 13.53515625 7.078125 C17.87634967 9.75269934 17.87634967 9.75269934 19 12 C14.72661674 10.44604245 10.90588644 8.29563727 7 6 C5.68844503 5.24834861 4.37597863 4.4982848 3.0625 3.75 C2.051875 3.1725 1.04125 2.595 0 2 C0 1.34 0 0.68 0 0 Z "
     fill="#FF807E"
     transform="translate(596,332)"
     id="path19"
     style="fill:#000000;fill-opacity:1;stroke:none;stroke-opacity:1" />
  <path
     d="M0 0 C4.91935902 4.11619836 9.52647956 8.40410362 14 13 C9.66825307 13 7.77646347 10.34177417 4.8125 7.5 C4.25369141 6.97535156 3.69488281 6.45070313 3.11914062 5.91015625 C1.73984636 4.61338387 0.36909356 3.30753741 -1 2 C-0.67 1.34 -0.34 0.68 0 0 Z "
     fill="#FF7A79"
     transform="translate(235,564)"
     id="path20"
     style="fill:#000000;fill-opacity:1;stroke:none;stroke-opacity:1" />
  <path
     d="M0 0 C0.66 0.33 1.32 0.66 2 1 C0.21568681 3.33930023 -1.57684069 5.6713837 -3.375 8 C-3.88289063 8.66773438 -4.39078125 9.33546875 -4.9140625 10.0234375 C-5.40390625 10.65507812 -5.89375 11.28671875 -6.3984375 11.9375 C-7.07398682 12.81728516 -7.07398682 12.81728516 -7.76318359 13.71484375 C-8.17133301 14.13894531 -8.57948242 14.56304687 -9 15 C-9.66 15 -10.32 15 -11 15 C-9.53289058 10.15853891 -6.6487256 6.44051028 -3 3 C-2.34 3 -1.68 3 -1 3 C-0.67 2.01 -0.34 1.02 0 0 Z "
     fill="#FF7A78"
     transform="translate(461,395)"
     id="path21"
     style="fill:#000000;fill-opacity:1;stroke:none;stroke-opacity:1" />
  <path
     d="M0 0 C0.66 0 1.32 0 2 0 C2.33 1.32 2.66 2.64 3 4 C3.66 4 4.32 4 5 4 C6.5078125 5.96875 6.5078125 5.96875 8.125 8.5 C8.66382813 9.3353125 9.20265625 10.170625 9.7578125 11.03125 C10.37269531 12.00578125 10.37269531 12.00578125 11 13 C10.67 13.66 10.34 14.32 10 15 C8.70069021 13.44384991 7.41085862 11.8797832 6.125 10.3125 C5.40570313 9.44238281 4.68640625 8.57226562 3.9453125 7.67578125 C2.11067624 5.1522354 1.00532771 2.93661514 0 0 Z "
     fill="#FF7B79"
     transform="translate(236,491)"
     id="path22"
     style="fill:#000000;fill-opacity:1;stroke:none;stroke-opacity:1" />
  <path
     d="M0 0 C5.80205656 5.64524422 5.80205656 5.64524422 8 9 C8 9.66 8 10.32 8 11 C8.66 11 9.32 11 10 11 C10 11.66 10 12.32 10 13 C6.32943063 11.52202738 4.58914217 9.52384523 2.25 6.375 C1.63640625 5.55773437 1.0228125 4.74046875 0.390625 3.8984375 C-0.06828125 3.27195312 -0.5271875 2.64546875 -1 2 C-0.67 1.34 -0.34 0.68 0 0 Z "
     fill="#FF7978"
     transform="translate(726,366)"
     id="path23"
     style="fill:#000000;fill-opacity:1;stroke:none;stroke-opacity:1" />
  <path
     d="M0 0 C0.33 0.99 0.66 1.98 1 3 C-0.87109375 5.69921875 -0.87109375 5.69921875 -3.4375 8.6875 C-4.28183594 9.68136719 -5.12617187 10.67523437 -5.99609375 11.69921875 C-6.98802734 12.83810547 -6.98802734 12.83810547 -8 14 C-8.66 13.67 -9.32 13.34 -10 13 C-5.05 6.565 -5.05 6.565 0 0 Z "
     fill="#FF7B7A"
     transform="translate(690,534)"
     id="path24"
     style="fill:#000000;fill-opacity:1;stroke:none;stroke-opacity:1" />
  <path
     d="M0 0 C0.33 0.66 0.66 1.32 1 2 C-0.109375 4.56640625 -0.109375 4.56640625 -1.75 7.5625 C-2.54664063 9.04943359 -2.54664063 9.04943359 -3.359375 10.56640625 C-5 13 -5 13 -8 14 C-6.6744419 10.37723685 -5.05653045 7.36494652 -2.875 4.1875 C-2.33617187 3.39730469 -1.79734375 2.60710937 -1.2421875 1.79296875 C-0.83226562 1.20128906 -0.42234375 0.60960937 0 0 Z "
     fill="#FE7B7A"
     transform="translate(710,505)"
     id="path25"
     style="fill:#000000;fill-opacity:1;stroke:none;stroke-opacity:1" />
  <path
     d="M0 0 C0.66 0.33 1.32 0.66 2 1 C0.59785066 2.36919284 -0.82228473 3.71998709 -2.25 5.0625 C-3.43335938 6.19365234 -3.43335938 6.19365234 -4.640625 7.34765625 C-7 9 -7 9 -9.296875 8.74609375 C-9.85890625 8.49988281 -10.4209375 8.25367188 -11 8 C-11 7.34 -11 6.68 -11 6 C-9.948125 5.9071875 -9.948125 5.9071875 -8.875 5.8125 C-4.9667267 4.70798798 -2.99642752 2.71769008 0 0 Z "
     fill="#FF7E7C"
     transform="translate(458,480)"
     id="path26"
     style="fill:#000000;fill-opacity:1;stroke:none;stroke-opacity:1" />
  <path
     d="M0 0 C0.33 0 0.66 0 1 0 C0.43179252 5.45479185 -0.94637945 9.91059256 -3 15 C-3.66 15 -4.32 15 -5 15 C-1.92482916 4.44191344 -1.92482916 4.44191344 0 0 Z "
     fill="#FF7B79"
     transform="translate(735,452)"
     id="path27"
     style="fill:#000000;fill-opacity:1;stroke:none;stroke-opacity:1" />
  <path
     d="M0 0 C0.66 0 1.32 0 2 0 C0.58707905 4.8274799 -1.42974154 8.7162359 -4 13 C-5.0169313 10.34501768 -5.13022151 9.30844625 -4.00390625 6.640625 C-3.52824219 5.85171875 -3.05257812 5.0628125 -2.5625 4.25 C-2.08941406 3.45078125 -1.61632812 2.6515625 -1.12890625 1.828125 C-0.75636719 1.22484375 -0.38382813 0.6215625 0 0 Z "
     fill="#FF7B7A"
     transform="translate(680,459)"
     id="path28"
     style="fill:#000000;fill-opacity:1;stroke:none;stroke-opacity:1" />
  <path
     d="M0 0 C0.33 0.66 0.66 1.32 1 2 C0.67 2.66 0.34 3.32 0 4 C-0.66 4 -1.32 4 -2 4 C-2.2475 4.78375 -2.495 5.5675 -2.75 6.375 C-4.15389099 9.32317108 -5.00675737 9.9024777 -8 11 C-5.69281189 6.71522208 -3.67033927 3.27708863 0 0 Z "
     fill="#FF7F7D"
     transform="translate(215,408)"
     id="path29"
     style="fill:#000000;fill-opacity:1;stroke:none;stroke-opacity:1" />
  <path
     d="M0 0 C0 0.99 0 1.98 0 3 C-1.64453125 4.640625 -1.64453125 4.640625 -3.8125 6.25 C-4.52019531 6.79140625 -5.22789062 7.3328125 -5.95703125 7.890625 C-6.96830078 8.43976563 -6.96830078 8.43976563 -8 9 C-8.99 8.67 -9.98 8.34 -11 8 C-7.37 5.36 -3.74 2.72 0 0 Z "
     fill="#FF7F7D"
     transform="translate(272,353)"
     id="path30"
     style="fill:#000000;fill-opacity:1;stroke:none;stroke-opacity:1" />
  <path
     d="M0 0 C0 0.66 0 1.32 0 2 C-1.96875 3.5078125 -1.96875 3.5078125 -4.5 5.125 C-5.3353125 5.66382813 -6.170625 6.20265625 -7.03125 6.7578125 C-7.6809375 7.16773438 -8.330625 7.57765625 -9 8 C-9.66 7.67 -10.32 7.34 -11 7 C-4.48275862 0 -4.48275862 0 0 0 Z "
     fill="#FF7B7A"
     transform="translate(259,294)"
     id="path31"
     style="fill:#000000;fill-opacity:1;stroke:none;stroke-opacity:1" />
  <path
     d="M0 0 C0 0.99 0 1.98 0 3 C-5.17578125 6.22265625 -5.17578125 6.22265625 -7 7 C-7.99 6.67 -8.98 6.34 -10 6 C-6.87567603 3.47650757 -3.61939504 1.72743854 0 0 Z "
     fill="#FF7A78"
     transform="translate(283,279)"
     id="path32"
     style="fill:#000000;fill-opacity:1;stroke:none;stroke-opacity:1" />
  <path
     d="M0 0 C3.1414436 1.83250877 6.22602027 3.63698023 9 6 C9 6.66 9 7.32 9 8 C5.56247993 6.4722133 2.81046312 4.49818944 0 2 C0 1.34 0 0.68 0 0 Z "
     fill="#FF7B7A"
     transform="translate(254,582)"
     id="path33"
     style="fill:#000000;fill-opacity:1;stroke:none;stroke-opacity:1" />
  <path
     d="M0 0 C2.64465038 3.1254959 3.84414715 6.08788267 5 10 C4.01 10.495 4.01 10.495 3 11 C1.68 7.7 0.36 4.4 -1 1 C-0.67 0.67 -0.34 0.34 0 0 Z "
     fill="#FF7C7B"
     transform="translate(172,473)"
     id="path34"
     style="fill:#000000;fill-opacity:1;stroke:none;stroke-opacity:1" />
  <path
     d="M0 0 C4.06623972 1.35541324 5.53046818 3.57009469 8 7 C7.67 7.99 7.34 8.98 7 10 C5.82739389 8.71372289 4.6620717 7.42080217 3.5 6.125 C2.8503125 5.40570313 2.200625 4.68640625 1.53125 3.9453125 C0 2 0 2 0 0 Z "
     fill="#FF7E7C"
     transform="translate(441,400)"
     id="path35"
     style="fill:#000000;fill-opacity:1;stroke:none;stroke-opacity:1" />
  <path
     d="M0 0 C3.94139078 1.66751148 6.7892812 4.22710649 10 7 C6.65580848 7 5.93159679 6.52480606 3.3125 4.625 C2.68988281 4.18414062 2.06726563 3.74328125 1.42578125 3.2890625 C0.95527344 2.86367188 0.48476563 2.43828125 0 2 C0 1.34 0 0.68 0 0 Z "
     fill="#FF807D"
     transform="translate(641,363)"
     id="path36"
     style="fill:#000000;fill-opacity:1;stroke:none;stroke-opacity:1" />
  <path
     d="M0 0 C0.66 0.66 1.32 1.32 2 2 C0.68 4.31 -0.64 6.62 -2 9 C-2.66 9 -3.32 9 -4 9 C-2.80100302 5.9168649 -1.52299523 2.93720508 0 0 Z "
     fill="#FF7B7A"
     transform="translate(722,483)"
     id="path37"
     style="fill:#000000;fill-opacity:1;stroke:none;stroke-opacity:1" />
</svg>
